<?xml version="1.0" standalone="no"?>
<!DOCTYPE svg PUBLIC "-//W3C//DTD SVG 20010904//EN"
 "http://www.w3.org/TR/2001/REC-SVG-20010904/DTD/svg10.dtd">
<svg version="1.0" xmlns="http://www.w3.org/2000/svg"
 width="700.000000pt" height="700.000000pt" viewBox="0 0 700.000000 700.000000"
 preserveAspectRatio="xMidYMid meet">
<metadata>
Created by potrace 1.14, written by Peter Selinger 2001-2017
</metadata>
<g transform="translate(0.000000,700.000000) scale(0.100000,-0.100000)"
fill="#000000" stroke="none">
<path d="M3215 6994 c-616 -61 -1147 -243 -1630 -561 -419 -276 -743 -600
-1018 -1018 -291 -444 -461 -901 -544 -1470 -25 -173 -25 -718 0 -890 118
-807 447 -1474 997 -2026 295 -295 583 -500 962 -684 342 -165 680 -267 1068
-320 160 -22 563 -31 742 -16 828 70 1596 427 2183 1016 591 592 946 1354
1016 2183 15 179 6 583 -16 741 -110 792 -446 1472 -1000 2027 -549 550 -1235
890 -2020 1000 -114 16 -633 28 -740 18z m2870 -1764 c368 -79 576 -298 592
-620 7 -146 -13 -247 -73 -370 -39 -79 -62 -109 -133 -180 -70 -69 -105 -95
-186 -136 -55 -29 -125 -59 -155 -69 -57 -18 -86 -35 -59 -35 60 -1 207 -114
256 -198 100 -170 81 -444 -44 -640 -130 -204 -377 -340 -713 -394 -51 -8
-169 -13 -297 -13 l-211 0 -6 -36 c-13 -83 -90 -133 -207 -133 -142 -1 -165
36 -155 259 19 465 122 1179 252 1753 29 129 79 166 221 167 78 0 96 -3 120
-21 50 -37 50 -68 0 -279 -81 -335 -157 -800 -193 -1173 -14 -147 -15 -185 -5
-191 22 -14 212 -20 329 -10 236 19 376 73 479 183 79 83 106 150 107 261 1
87 -10 124 -57 193 -59 88 -158 133 -331 151 -64 6 -94 14 -107 28 -46 45 -31
203 25 259 29 29 38 31 146 42 153 16 226 35 337 88 230 110 328 312 257 527
-21 65 -106 155 -179 191 -172 84 -488 100 -785 40 -189 -38 -440 -141 -602
-247 -100 -65 -126 -77 -173 -77 -87 0 -122 152 -61 269 36 67 169 161 350
246 175 83 403 150 591 174 44 6 94 13 110 15 17 2 127 3 245 1 175 -2 234 -7
315 -25z m-4928 -40 c135 -58 203 -205 203 -440 0 -182 -35 -434 -116 -840
-32 -158 -37 -206 -38 -325 -1 -155 8 -196 55 -250 35 -39 98 -59 171 -53 162
13 328 196 458 503 122 287 196 601 254 1070 30 242 38 269 85 316 77 77 229
59 277 -33 37 -71 31 -144 -85 -1093 -61 -495 -111 -900 -111 -901 0 0 75 21
168 48 92 26 174 48 183 48 14 0 15 38 15 343 -1 374 -1 374 58 413 33 21 125
29 170 14 65 -21 69 -38 78 -358 4 -156 12 -363 18 -459 5 -96 10 -195 10
-219 0 -24 4 -44 8 -44 4 0 18 26 29 58 12 31 45 118 73 192 29 74 99 274 156
445 57 170 112 321 122 335 59 80 205 79 230 -2 6 -18 13 -136 17 -263 11
-434 32 -772 46 -758 11 11 131 228 186 338 l46 90 -17 70 c-20 86 -21 222 -1
294 46 173 161 291 284 291 66 0 131 -57 152 -132 24 -91 4 -294 -41 -412
l-11 -29 63 6 c35 3 118 18 184 33 74 16 132 24 149 20 73 -19 73 -204 -2
-287 -77 -85 -315 -121 -494 -74 -29 8 -54 13 -55 12 -1 -1 -26 -47 -56 -102
-222 -406 -314 -508 -458 -508 -153 0 -207 107 -230 453 -6 91 -12 172 -14
180 -1 8 -19 -37 -41 -100 -134 -399 -230 -533 -385 -533 -31 0 -68 7 -86 16
-77 40 -130 143 -154 296 -5 35 -11 65 -13 67 -4 4 -337 -78 -394 -97 -25 -8
-33 -17 -37 -42 -3 -18 -15 -97 -27 -177 -84 -585 -306 -950 -639 -1051 -105
-32 -257 -33 -355 -2 -124 40 -220 136 -261 260 -26 78 -26 269 -1 363 42 156
126 289 266 422 145 139 367 275 616 379 68 28 92 43 97 61 5 13 21 140 38
283 17 143 33 278 35 300 7 49 5 45 -68 -132 -73 -179 -142 -287 -252 -398
-74 -75 -105 -98 -175 -132 -47 -23 -113 -47 -148 -54 -82 -16 -202 -7 -275
21 -131 49 -240 200 -273 380 -24 124 -14 346 25 560 115 642 135 797 117 895
-16 85 -90 108 -189 59 -66 -34 -195 -164 -266 -269 -73 -108 -90 -125 -122
-125 -31 0 -75 45 -85 87 -43 170 210 531 452 645 130 61 280 72 381 28z"/>
<path d="M1784 2636 c-159 -80 -239 -132 -326 -214 -121 -115 -178 -227 -180
-357 -2 -145 62 -219 189 -218 198 1 343 206 417 590 24 128 42 263 34 263 -2
0 -62 -29 -134 -64z"/>
</g>
</svg>
